<svg width="440" height="280" viewBox="0 0 440 280" fill="none" xmlns="http://www.w3.org/2000/svg">
  <rect width="440" height="280" fill="#111827"/>
  
  <!-- Abstract Grid Background -->
  <mask id="gridMask">
      <rect width="440" height="280" fill="white"/>
      <path d="M0 40H440M0 80H440M0 120H440M0 160H440M0 200H440M0 240H440" stroke="black" stroke-width="1"/>
      <path d="M40 0V280M80 0V280M120 0V280M160 0V280M200 0V280M240 0V280M280 0V280M320 0V280M360 0V280M400 0V280" stroke="black" stroke-width="1"/>
  </mask>
  <rect width="440" height="280" fill="#1F2937" mask="url(#gridMask)" opacity="0.2"/>

  <!-- Icon Centered (Simplified for tile) -->
  <g transform="translate(145, 65) scale(0.3)">
      <path d="M60 120C60 97.9086 77.9086 80 100 80H200L240 120H412C434.091 120 452 137.909 452 160V412C452 434.091 434.091 452 412 452H100C77.9086 452 60 434.091 60 412V120Z" fill="#3B82F6"/>
      <path d="M60 180C60 157.909 77.9086 140 100 140H412C434.091 140 452 157.909 452 180V412C452 434.091 434.091 452 412 452H100C77.9086 452 60 434.091 60 412V180Z" fill="#60A5FA"/>
      <circle cx="280" cy="280" r="88" fill="white" fill-opacity="0.2" stroke="white" stroke-width="24"/>
      <rect x="320" y="320" width="40" height="140" rx="20" transform="rotate(-45 320 320)" fill="#1E293B"/>
  </g>

  <text x="220" y="230" font-family="sans-serif" font-size="24" font-weight="bold" fill="white" text-anchor="middle">OPFS Explorer</text>
</svg>
