<svg width="1400" height="560" viewBox="0 0 1400 560" fill="none" xmlns="http://www.w3.org/2000/svg">
  <defs>
    <linearGradient id="bgGrad" x1="0" y1="0" x2="1400" y2="560" gradientUnits="userSpaceOnUse">
      <stop offset="0%" stop-color="#0F172A"/>
      <stop offset="100%" stop-color="#1E1B4B"/>
    </linearGradient>
  </defs>
  <rect width="1400" height="560" fill="url(#bgGrad)"/>

  <!-- Tech Accents (Code/Data visual) -->
  <rect x="100" y="100" width="300" height="20" rx="10" fill="#334155" opacity="0.5"/>
  <rect x="100" y="140" width="200" height="20" rx="10" fill="#334155" opacity="0.3"/>
  <rect x="100" y="180" width="250" height="20" rx="10" fill="#334155" opacity="0.4"/>
  
  <!-- Icon on the Left -->
  <g transform="translate(150, 100) scale(0.8)">
      <path d="M60 120C60 97.9086 77.9086 80 100 80H200L240 120H412C434.091 120 452 137.909 452 160V412C452 434.091 434.091 452 412 452H100C77.9086 452 60 434.091 60 412V120Z" fill="#3B82F6"/>
      <path d="M60 180C60 157.909 77.9086 140 100 140H412C434.091 140 452 157.909 452 180V412C452 434.091 434.091 452 412 452H100C77.9086 452 60 434.091 60 412V180Z" fill="#60A5FA"/>
      <circle cx="280" cy="280" r="88" fill="white" fill-opacity="0.2" stroke="white" stroke-width="24"/>
      <rect x="320" y="320" width="40" height="140" rx="20" transform="rotate(-45 320 320)" fill="#1E293B"/>
  </g>

  <!-- Text on the Right -->
  <text x="600" y="260" font-family="sans-serif" font-size="80" font-weight="bold" fill="white">OPFS Explorer</text>
  <text x="600" y="340" font-family="sans-serif" font-size="36" font-weight="normal" fill="#94A3B8">Unlock the Origin Private File System</text>
  
  <!-- Feature Chips -->
  <rect x="600" y="400" width="180" height="50" rx="25" fill="#3B82F6" fill-opacity="0.2" stroke="#3B82F6" stroke-width="2"/>
  <text x="690" y="432" font-family="sans-serif" font-size="20" fill="#60A5FA" text-anchor="middle">File Manager</text>

  <rect x="800" y="400" width="180" height="50" rx="25" fill="#10B981" fill-opacity="0.2" stroke="#10B981" stroke-width="2"/>
  <text x="890" y="432" font-family="sans-serif" font-size="20" fill="#34D399" text-anchor="middle">Code Editor</text>

  <rect x="1000" y="400" width="180" height="50" rx="25" fill="#F59E0B" fill-opacity="0.2" stroke="#F59E0B" stroke-width="2"/>
  <text x="1090" y="432" font-family="sans-serif" font-size="20" fill="#FBBF24" text-anchor="middle">DevTools</text>

</svg>
